<svg xmlns="http://www.w3.org/2000/svg" width="24.225" height="24.27" viewBox="0 0 24.225 24.27">
  <path id="Icon_feather-phone" data-name="Icon feather-phone" d="M25.391,19.672v3.352a2.235,2.235,0,0,1-2.436,2.235,22.114,22.114,0,0,1-9.643-3.43,21.79,21.79,0,0,1-6.7-6.7,22.114,22.114,0,0,1-3.43-9.688A2.235,2.235,0,0,1,5.4,3H8.753a2.235,2.235,0,0,1,2.235,1.922,14.347,14.347,0,0,0,.782,3.14,2.235,2.235,0,0,1-.5,2.358L9.848,11.839a17.879,17.879,0,0,0,6.7,6.7l1.419-1.419a2.235,2.235,0,0,1,2.358-.5,14.347,14.347,0,0,0,3.14.782A2.235,2.235,0,0,1,25.391,19.672Z" transform="translate(-2.167 -2)" fill="none" stroke="#fff" stroke-linecap="round" stroke-linejoin="round" stroke-width="2"/>
</svg>
